<svg version="1.1" id="Layer_1" xmlns="http://www.w3.org/2000/svg" xmlns:xlink="http://www.w3.org/1999/xlink" x="0px" y="0px"
	 width="100%" viewBox="0 0 512 512" enable-background="new 0 0 512 512" xml:space="preserve">

<path fill="#262323" opacity="1.000000" stroke="none"
	d="
M11.004923,250.000000 
	C11.004911,212.676926 11.082044,175.853485 10.909618,139.031219 
	C10.887454,134.298080 12.355775,131.088898 16.371431,128.778946 
	C28.902691,121.570541 41.396313,114.296700 53.904800,107.048698 
	C74.170578,95.305786 94.421219,83.536644 114.706764,71.827957 
	C135.428040,59.867790 156.193375,47.983982 176.920807,36.034481 
	C190.881210,27.986219 204.888016,20.013454 218.713547,11.738705 
	C224.332291,8.375813 229.368286,8.275662 235.049103,11.593801 
	C260.301819,26.343790 285.683563,40.872787 310.999420,55.514938 
	C335.745209,69.827385 360.452148,84.207062 385.205963,98.505638 
	C401.467529,107.898842 417.720734,117.309898 434.104950,126.485657 
	C440.088043,129.836411 443.261719,133.691376 443.196899,141.333878 
	C442.795532,188.650635 443.070709,235.972778 442.880859,283.292175 
	C442.861389,288.151703 444.214813,290.496399 448.799683,292.540741 
	C478.625092,305.839722 496.954712,328.499023 501.972565,360.984192 
	C506.153168,388.048859 499.581177,412.351929 481.344482,433.207428 
	C466.636932,450.026947 448.336914,460.061005 426.161743,463.069244 
	C397.446106,466.964722 372.739868,458.606750 351.456787,439.175995 
	C350.223389,438.049957 346.947937,437.655212 345.513702,438.476257 
	C314.805054,456.056305 284.225555,473.861908 253.616608,491.616211 
	C247.001572,495.453217 240.359116,499.243042 233.749573,503.089417 
	C229.339539,505.655792 224.947693,505.786316 220.501221,503.210449 
	C196.061203,489.052338 171.639343,474.862701 147.170242,460.754974 
	C119.669464,444.899261 92.118004,429.131470 64.602402,413.301453 
	C49.050552,404.354370 33.542786,395.330505 17.980543,386.401581 
	C12.922716,383.499603 10.803731,379.667358 10.849287,373.465576 
	C11.150360,332.478882 11.004914,291.488892 11.004923,250.000000 
M218.995697,382.500000 
	C218.995697,344.002075 218.930161,305.503845 219.093552,267.006622 
	C219.110550,263.003876 217.870071,260.851227 214.415131,258.864410 
	C153.665253,223.929794 92.993385,188.859528 32.300640,153.825546 
	C30.782356,152.949142 29.219120,152.150620 27.254385,151.087112 
	C27.176670,152.781189 27.093456,153.749329 27.093374,154.717484 
	C27.087234,225.880127 27.118467,297.042816 26.993715,368.205261 
	C26.987684,371.644684 28.401207,373.170441 31.069233,374.706848 
	C89.057999,408.099731 147.007309,441.561066 204.965485,475.007080 
	C209.391449,477.561218 213.827072,480.098633 218.995697,483.067383 
	C218.995697,449.335388 218.995697,416.417694 218.995697,382.500000 
M327.928619,351.476898 
	C333.199280,332.182098 343.771973,316.372070 359.571960,304.185608 
	C379.273712,288.989777 401.747711,283.604950 426.505341,286.457428 
	C426.505341,241.252060 426.505341,196.454315 426.505341,151.090012 
	C407.671509,161.958221 389.343140,172.445068 371.176331,183.204636 
	C369.859375,183.984604 369.125549,186.744827 369.117004,188.588974 
	C368.988770,216.254120 368.945953,243.920502 369.101898,271.585358 
	C369.130829,276.712982 367.216644,279.912750 362.793762,282.419678 
	C344.264130,292.922363 325.652435,303.308990 307.511292,314.455109 
	C299.515900,319.367554 292.412537,315.449493 292.664520,305.595062 
	C293.264954,282.111206 292.858032,258.601593 292.858032,235.102371 
	C292.858032,233.167816 292.858002,231.233261 292.858002,228.605438 
	C290.774872,229.647217 289.312225,230.288330 287.936554,231.080460 
	C271.785187,240.380554 255.693268,249.785416 239.465866,258.950592 
	C236.231827,260.777161 234.876099,262.665833 234.884949,266.620117 
	C235.042282,336.950745 234.999130,407.281830 234.999146,477.612793 
	C234.999146,479.198761 234.999130,480.784729 234.999130,483.155212 
	C270.096222,462.882141 304.458954,443.033264 339.044159,423.055878 
	C325.492096,400.732239 321.453125,377.297821 327.928619,351.476898 
M98.574402,106.897575 
	C94.930733,103.737778 91.668068,104.137604 87.476593,106.666100 
	C71.943413,116.036461 56.112789,124.913528 40.403942,133.993271 
	C38.900787,134.862106 37.467373,135.851608 35.562000,137.065033 
	C37.704239,138.358948 39.229408,139.316193 40.787659,140.216125 
	C98.878380,173.765533 157.110611,207.074387 214.921967,241.098373 
	C223.993256,246.437119 230.467606,246.855148 239.299088,241.022980 
	C253.707352,231.507980 269.089447,223.467636 284.771362,214.393875 
	C222.530655,178.442535 160.882751,142.833618 98.574402,106.897575 
M308.334320,73.152061 
	C282.664917,58.349255 256.960876,43.605709 231.370651,28.667278 
	C228.236374,26.837629 225.960068,26.722668 222.795822,28.591433 
	C206.456268,38.241360 189.964645,47.633705 173.536011,57.133080 
	C172.325974,57.832741 171.194351,58.668018 169.734421,59.633190 
	C170.808533,60.347462 171.466202,60.838799 172.172150,61.246574 
	C234.156769,97.051048 296.133179,132.869843 358.202393,168.527084 
	C359.745117,169.413361 362.728058,169.236603 364.346252,168.325195 
	C381.315643,158.767487 398.147064,148.964584 415.002014,139.204239 
	C416.064301,138.589111 417.004791,137.763657 418.408905,136.739105 
	C381.578522,115.473618 345.267029,94.507729 308.334320,73.152061 
M480.151733,344.392822 
	C465.463196,313.240753 433.833374,296.912903 399.944153,302.988159 
	C360.839722,309.998322 334.596191,348.913940 342.139130,388.705200 
	C349.501495,427.543976 388.625702,454.132904 427.044495,446.407196 
	C473.980591,436.968719 498.871643,389.786102 480.151733,344.392822 
M265.699707,133.791779 
	C229.804153,113.063522 193.870209,92.401031 158.070511,71.508507 
	C154.360367,69.343300 151.794266,69.467957 148.221298,71.637337 
	C136.840607,78.547295 125.208183,85.042404 113.682144,91.713562 
	C112.313553,92.505692 111.001457,93.395462 109.486404,94.351524 
	C110.264366,94.960167 110.623543,95.317200 111.047501,95.562103 
	C173.317017,131.533234 235.579300,167.517059 297.934967,203.338287 
	C299.477325,204.224319 302.454041,204.021957 304.088928,203.114700 
	C316.750671,196.088348 329.251190,188.771194 341.784180,181.513916 
	C342.684692,180.992462 343.447083,180.232468 344.597046,179.329437 
	C318.221008,164.095871 292.283508,149.115570 265.699707,133.791779 
M324.480499,285.984253 
	C332.693695,281.256805 340.853882,276.433258 349.149963,271.856140 
	C351.902344,270.337555 353.146942,268.695007 353.119171,265.314484 
	C352.934692,242.848114 353.028351,220.379471 353.010162,197.911591 
	C353.009186,196.701813 352.815216,195.492188 352.662689,193.720642 
	C339.016296,201.602478 326.002319,209.268661 312.815094,216.624222 
	C309.746460,218.335876 308.767548,220.268417 308.789917,223.671371 
	C308.933167,245.472626 308.858124,267.275269 308.873016,289.077454 
	C308.874115,290.673431 309.017883,292.269348 309.141571,294.817902 
	C314.471161,291.740570 319.154022,289.036682 324.480499,285.984253 
z"/>
<path fill="#ECBA78" opacity="1.000000" stroke="none" 
	d="
M218.995697,383.000000 
	C218.995697,416.417694 218.995697,449.335388 218.995697,483.067383 
	C213.827072,480.098633 209.391449,477.561218 204.965485,475.007080 
	C147.007309,441.561066 89.057999,408.099731 31.069233,374.706848 
	C28.401207,373.170441 26.987684,371.644684 26.993715,368.205261 
	C27.118467,297.042816 27.087234,225.880127 27.093374,154.717484 
	C27.093456,153.749329 27.176670,152.781189 27.254385,151.087112 
	C29.219120,152.150620 30.782356,152.949142 32.300640,153.825546 
	C92.993385,188.859528 153.665253,223.929794 214.415131,258.864410 
	C217.870071,260.851227 219.110550,263.003876 219.093552,267.006622 
	C218.930161,305.503845 218.995697,344.002075 218.995697,383.000000 
z"/>
<path fill="#F1D0A4" opacity="1.000000" stroke="none"
	d="
M327.830078,351.876038 
	C321.453125,377.297821 325.492096,400.732239 339.044159,423.055878 
	C304.458954,443.033264 270.096222,462.882141 234.999130,483.155212 
	C234.999130,480.784729 234.999146,479.198761 234.999146,477.612793 
	C234.999130,407.281830 235.042282,336.950745 234.884949,266.620117 
	C234.876099,262.665833 236.231827,260.777161 239.465866,258.950592 
	C255.693268,249.785416 271.785187,240.380554 287.936554,231.080460 
	C289.312225,230.288330 290.774872,229.647217 292.858002,228.605438 
	C292.858002,231.233261 292.858032,233.167816 292.858032,235.102371 
	C292.858032,258.601593 293.264954,282.111206 292.664520,305.595062 
	C292.412537,315.449493 299.515900,319.367554 307.511292,314.455109 
	C325.652435,303.308990 344.264130,292.922363 362.793762,282.419678 
	C367.216644,279.912750 369.130829,276.712982 369.101898,271.585358 
	C368.945953,243.920502 368.988770,216.254120 369.117004,188.588974 
	C369.125549,186.744827 369.859375,183.984604 371.176331,183.204636 
	C389.343140,172.445068 407.671509,161.958221 426.505341,151.090012 
	C426.505341,196.454315 426.505341,241.252060 426.505341,286.457428 
	C401.747711,283.604950 379.273712,288.989777 359.571960,304.185608 
	C343.771973,316.372070 333.199280,332.182098 327.830078,351.876038 
M263.704529,398.208527 
	C256.656647,400.972229 254.221786,406.099670 254.879013,413.565979 
	C255.445740,420.004303 254.938507,426.532654 255.012070,433.020020 
	C255.107407,441.428009 261.079803,444.897797 268.469330,440.703888 
	C281.327026,433.406525 294.049194,425.870117 306.918274,418.593292 
	C310.850922,416.369598 312.578125,413.294739 312.521301,408.865021 
	C312.423126,401.213593 312.596008,393.558319 312.470245,385.907684 
	C312.318939,376.704620 306.564484,373.543396 298.450653,378.184052 
	C287.058716,384.699646 275.722992,391.313568 263.704529,398.208527 
z"/>
<path fill="#E2A66F" opacity="1.000000" stroke="none"
	d="
M98.904633,107.061142 
	C160.882751,142.833618 222.530655,178.442535 284.771362,214.393875 
	C269.089447,223.467636 253.707352,231.507980 239.299088,241.022980 
	C230.467606,246.855148 223.993256,246.437119 214.921967,241.098373 
	C157.110611,207.074387 98.878380,173.765533 40.787659,140.216125 
	C39.229408,139.316193 37.704239,138.358948 35.562000,137.065033 
	C37.467373,135.851608 38.900787,134.862106 40.403942,133.993271 
	C56.112789,124.913528 71.943413,116.036461 87.476593,106.666100 
	C91.668068,104.137604 94.930733,103.737778 98.904633,107.061142 
z"/>
<path fill="#E2A66F" opacity="1.000000" stroke="none"
	d="
M308.644928,73.346954 
	C345.267029,94.507729 381.578522,115.473618 418.408905,136.739105 
	C417.004791,137.763657 416.064301,138.589111 415.002014,139.204239 
	C398.147064,148.964584 381.315643,158.767487 364.346252,168.325195 
	C362.728058,169.236603 359.745117,169.413361 358.202393,168.527084 
	C296.133179,132.869843 234.156769,97.051048 172.172150,61.246574 
	C171.466202,60.838799 170.808533,60.347462 169.734421,59.633190 
	C171.194351,58.668018 172.325974,57.832741 173.536011,57.133080 
	C189.964645,47.633705 206.456268,38.241360 222.795822,28.591433 
	C225.960068,26.722668 228.236374,26.837629 231.370651,28.667278 
	C256.960876,43.605709 282.664917,58.349255 308.644928,73.346954 
z"/>
<path fill="#3078B7" opacity="1.000000" stroke="none"
	d="
M480.329956,344.728088 
	C498.871643,389.786102 473.980591,436.968719 427.044495,446.407196 
	C388.625702,454.132904 349.501495,427.543976 342.139130,388.705200 
	C334.596191,348.913940 360.839722,309.998322 399.944153,302.988159 
	C433.833374,296.912903 465.463196,313.240753 480.329956,344.728088 
M416.993652,356.493652 
	C412.427612,361.034302 407.861572,365.574951 402.870239,370.538544 
	C398.939423,366.488495 395.311737,362.618134 391.541107,358.892487 
	C382.776886,350.232819 370.782562,349.875885 362.574890,357.946320 
	C354.497162,365.888977 354.651276,378.351593 363.094330,386.949280 
	C371.490906,395.499664 379.957642,403.983826 388.520050,412.367889 
	C397.405884,421.068695 409.088379,421.178619 417.847839,412.444397 
	C433.641418,396.696259 449.315155,380.826050 464.900482,364.871582 
	C473.174988,356.401093 473.117859,344.144806 465.103485,336.258362 
	C457.083618,328.366455 444.913696,328.572571 436.497467,336.864197 
	C430.095032,343.171844 423.822174,349.610992 416.993652,356.493652 
z"/>
<path fill="#C38858" opacity="1.000000" stroke="none"
	d="
M266.022858,133.963531 
	C292.283508,149.115570 318.221008,164.095871 344.597046,179.329437 
	C343.447083,180.232468 342.684692,180.992462 341.784180,181.513916 
	C329.251190,188.771194 316.750671,196.088348 304.088928,203.114700 
	C302.454041,204.021957 299.477325,204.224319 297.934967,203.338287 
	C235.579300,167.517059 173.317017,131.533234 111.047501,95.562103 
	C110.623543,95.317200 110.264366,94.960167 109.486404,94.351524 
	C111.001457,93.395462 112.313553,92.505692 113.682144,91.713562 
	C125.208183,85.042404 136.840607,78.547295 148.221298,71.637337 
	C151.794266,69.467957 154.360367,69.343300 158.070511,71.508507 
	C193.870209,92.401031 229.804153,113.063522 266.022858,133.963531 
z"/>
<path fill="#E2A76F" opacity="1.000000" stroke="none"
	d="
M324.158691,286.158508 
	C319.154022,289.036682 314.471161,291.740570 309.141571,294.817902 
	C309.017883,292.269348 308.874115,290.673431 308.873016,289.077454 
	C308.858124,267.275269 308.933167,245.472626 308.789917,223.671371 
	C308.767548,220.268417 309.746460,218.335876 312.815094,216.624222 
	C326.002319,209.268661 339.016296,201.602478 352.662689,193.720642 
	C352.815216,195.492188 353.009186,196.701813 353.010162,197.911591 
	C353.028351,220.379471 352.934692,242.848114 353.119171,265.314484 
	C353.146942,268.695007 351.902344,270.337555 349.149963,271.856140 
	C340.853882,276.433258 332.693695,281.256805 324.158691,286.158508 
z"/>
<path fill="#262423" opacity="1.000000" stroke="none"
	d="
M264.033875,398.046997 
	C275.722992,391.313568 287.058716,384.699646 298.450653,378.184052 
	C306.564484,373.543396 312.318939,376.704620 312.470245,385.907684 
	C312.596008,393.558319 312.423126,401.213593 312.521301,408.865021 
	C312.578125,413.294739 310.850922,416.369598 306.918274,418.593292 
	C294.049194,425.870117 281.327026,433.406525 268.469330,440.703888 
	C261.079803,444.897797 255.107407,441.428009 255.012070,433.020020 
	C254.938507,426.532654 255.445740,420.004303 254.879013,413.565979 
	C254.221786,406.099670 256.656647,400.972229 264.033875,398.046997 
M296.562561,401.749817 
	C296.425293,400.676788 296.287994,399.603790 296.085449,398.020782 
	C289.134155,402.025482 282.842804,406.102783 276.150787,409.355804 
	C271.187195,411.768616 270.002075,415.015106 271.565430,420.481049 
	C279.585602,415.853455 287.381592,411.487976 294.985413,406.810150 
	C296.007538,406.181335 296.060822,403.977661 296.562561,401.749817 
z"/>
<path fill="#262425" opacity="1.000000" stroke="none"
	d="
M417.242645,356.242645 
	C423.822174,349.610992 430.095032,343.171844 436.497467,336.864197 
	C444.913696,328.572571 457.083618,328.366455 465.103485,336.258362 
	C473.117859,344.144806 473.174988,356.401093 464.900482,364.871582 
	C449.315155,380.826050 433.641418,396.696259 417.847839,412.444397 
	C409.088379,421.178619 397.405884,421.068695 388.520050,412.367889 
	C379.957642,403.983826 371.490906,395.499664 363.094330,386.949280 
	C354.651276,378.351593 354.497162,365.888977 362.574890,357.946320 
	C370.782562,349.875885 382.776886,350.232819 391.541107,358.892487 
	C395.311737,362.618134 398.939423,366.488495 402.870239,370.538544 
	C407.861572,365.574951 412.427612,361.034302 417.242645,356.242645 
M379.077820,380.402374 
	C385.548309,386.871704 392.002380,393.357544 398.495270,399.804352 
	C402.616974,403.896820 403.802124,403.913940 407.881775,399.804596 
	C422.649872,384.929138 437.387573,370.023560 452.130859,355.123505 
	C452.830688,354.416260 453.912292,353.727600 454.051697,352.901337 
	C454.325928,351.276276 454.705353,348.724396 453.868439,348.080658 
	C452.651917,347.144958 450.325073,347.189911 448.612579,347.528717 
	C447.516083,347.745636 446.654999,349.227173 445.719635,350.172760 
	C434.020111,361.999695 422.345642,373.851440 410.622681,385.655090 
	C405.084015,391.231873 401.398682,391.220428 395.832306,385.705872 
	C390.632294,380.554321 385.470947,375.363708 380.299255,370.183624 
	C378.322052,368.203186 375.719910,366.890350 374.011322,369.576935 
	C373.103271,371.004700 373.986755,373.998444 374.815216,375.968292 
	C375.471710,377.529114 377.275757,378.607300 379.077820,380.402374 
z"/>
<path fill="#89C7FC" opacity="1.000000" stroke="none"
	d="
M296.562653,402.126526 
	C296.060822,403.977661 296.007538,406.181335 294.985413,406.810150 
	C287.381592,411.487976 279.585602,415.853455 271.565430,420.481049 
	C270.002075,415.015106 271.187195,411.768616 276.150787,409.355804 
	C282.842804,406.102783 289.134155,402.025482 296.085449,398.020782 
	C296.287994,399.603790 296.425293,400.676788 296.562653,402.126526 
z"/>
<path fill="#E5E8EA" opacity="1.000000" stroke="none"
	d="
M378.824036,380.151062 
	C377.275757,378.607300 375.471710,377.529114 374.815216,375.968292 
	C373.986755,373.998444 373.103271,371.004700 374.011322,369.576935 
	C375.719910,366.890350 378.322052,368.203186 380.299255,370.183624 
	C385.470947,375.363708 390.632294,380.554321 395.832306,385.705872 
	C401.398682,391.220428 405.084015,391.231873 410.622681,385.655090 
	C422.345642,373.851440 434.020111,361.999695 445.719635,350.172760 
	C446.654999,349.227173 447.516083,347.745636 448.612579,347.528717 
	C450.325073,347.189911 452.651917,347.144958 453.868439,348.080658 
	C454.705353,348.724396 454.325928,351.276276 454.051697,352.901337 
	C453.912292,353.727600 452.830688,354.416260 452.130859,355.123505 
	C437.387573,370.023560 422.649872,384.929138 407.881775,399.804596 
	C403.802124,403.913940 402.616974,403.896820 398.495270,399.804352 
	C392.002380,393.357544 385.548309,386.871704 378.824036,380.151062 
z"/>
</svg>