<svg version="1.1" id="Layer_1" xmlns="http://www.w3.org/2000/svg" xmlns:xlink="http://www.w3.org/1999/xlink" x="0px" y="0px"
	 width="100%" viewBox="0 0 512 512" enable-background="new 0 0 512 512" xml:space="preserve">

<path fill="#D5AD58" opacity="1.000000" stroke="none" 
	d="
M195.321198,41.317139 
	C204.280655,36.135185 212.890747,31.077864 221.616287,26.228254 
	C223.006958,25.455320 225.367569,24.814535 226.517502,25.463457 
	C243.746918,35.186214 260.848297,45.135864 278.575287,55.376102 
	C276.238739,56.776981 274.465240,57.875141 272.659637,58.917786 
	C209.826019,95.201187 147.016373,131.526367 84.102982,167.670975 
	C78.955620,170.628189 76.894798,174.225128 76.988785,180.097534 
	C77.260765,197.091583 77.204163,214.094131 77.014214,231.090408 
	C76.955132,236.376831 78.922348,239.729980 83.533989,242.349670 
	C104.949348,254.514862 126.223320,266.928772 147.562378,279.228607 
	C157.046936,284.695496 162.408142,281.530670 162.428406,270.455139 
	C162.456146,255.289932 162.508316,240.124008 162.371353,224.960007 
	C162.345474,222.095169 163.239960,220.487305 165.747971,219.042984 
	C230.785690,181.588470 295.765045,144.032593 360.837860,106.639267 
	C362.421173,105.729416 365.402100,105.673088 366.972900,106.560631 
	C385.807343,117.202339 404.524658,128.053177 423.173157,139.018433 
	C424.564514,139.836563 426.048340,141.946732 426.053741,143.461395 
	C426.200836,184.623413 426.161652,225.786072 426.138550,266.948639 
	C426.138275,267.430817 425.939758,267.912872 425.887024,268.152771 
	C367.889435,252.341156 318.378937,265.189514 283.470032,315.302734 
	C251.815674,360.743927 254.872833,408.403473 283.747192,455.413116 
	C283.147736,455.827972 282.290802,456.514771 281.350769,457.057709 
	C263.769501,467.210846 246.137329,477.277100 228.630768,487.557281 
	C225.811157,489.213013 223.775894,489.225403 220.949036,487.587891 
	C156.867950,450.467590 92.756256,413.399750 28.539516,376.514984 
	C24.328962,374.096558 23.034405,371.508087 23.044994,366.766968 
	C23.208765,293.440918 23.195889,220.114304 23.066654,146.788101 
	C23.059074,142.488358 24.143021,140.054672 28.079685,137.795883 
	C83.795517,105.826897 139.387817,73.642639 195.321198,41.317139 
z"/>
<path fill="#3078B7" opacity="1.000000" stroke="none" 
	d="
M417.026978,282.912476 
	C460.273987,297.894501 488.008423,334.400635 490.718201,379.506287 
	C494.020233,434.470703 450.332611,485.222504 395.491364,490.131104 
	C339.046997,495.183197 290.664581,459.263794 279.508606,404.024750 
	C267.700134,345.554840 309.772125,286.625305 368.794586,278.858551 
	C385.054962,276.718811 401.002289,277.734406 417.026978,282.912476 
M385.816895,392.019714 
	C390.983337,390.679596 392.205048,386.951721 392.190765,382.128815 
	C392.114197,356.306763 392.157990,330.484375 392.147034,304.662079 
	C392.146454,303.332397 392.540283,301.576599 391.860809,300.754761 
	C389.980347,298.480255 387.882294,295.447845 385.388062,294.896576 
	C383.136322,294.398895 379.656128,296.206512 377.827850,298.080597 
	C376.379822,299.564911 376.180420,302.687378 376.167725,305.086365 
	C376.052124,326.909760 376.099335,348.734009 376.098907,370.558014 
	C376.098877,372.308441 376.098877,374.058838 376.098877,376.129395 
	C361.320526,376.129395 347.342743,376.052551 333.366516,376.167023 
	C327.733490,376.213135 323.976288,379.844238 324.167664,384.548859 
	C324.356049,389.179626 327.840973,392.149719 333.465057,392.161255 
	C350.623810,392.196472 367.782745,392.139923 385.816895,392.019714 
z"/>
<path fill="#996E12" opacity="1.000000" stroke="none" 
	d="
M196.061676,183.063644 
	C181.759949,191.318054 167.904556,199.627991 153.740463,207.373383 
	C148.118134,210.447830 146.059738,214.464294 146.229813,220.641220 
	C146.527679,231.460175 146.312363,242.293274 146.312073,253.120438 
	C146.312027,254.928635 146.312073,256.736847 146.312073,259.562500 
	C143.978958,258.395081 142.388611,257.696869 140.892227,256.835388 
	C126.320587,248.446426 111.809166,239.951309 97.167305,231.687149 
	C94.184738,230.003754 92.994743,228.116470 93.050179,224.637756 
	C93.257172,211.648453 93.226074,198.652725 93.066078,185.662094 
	C93.026947,182.485229 93.868866,180.572098 96.770462,178.902756 
	C161.703720,141.545105 226.565887,104.063942 291.510162,66.725548 
	C293.043274,65.844109 295.827271,65.511284 297.247742,66.309982 
	C313.498840,75.447731 329.598907,84.854080 345.735016,94.196144 
	C346.159058,94.441635 346.534912,94.770271 347.613220,95.554939 
	C296.839172,124.878029 246.611740,153.885452 196.061676,183.063644 
z"/>
<path fill="#010202" opacity="1.000000" stroke="none" 
	d="
M385.379242,392.069397 
	C367.782745,392.139923 350.623810,392.196472 333.465057,392.161255 
	C327.840973,392.149719 324.356049,389.179626 324.167664,384.548859 
	C323.976288,379.844238 327.733490,376.213135 333.366516,376.167023 
	C347.342743,376.052551 361.320526,376.129395 376.098877,376.129395 
	C376.098877,374.058838 376.098877,372.308441 376.098907,370.558014 
	C376.099335,348.734009 376.052124,326.909760 376.167725,305.086365 
	C376.180420,302.687378 376.379822,299.564911 377.827850,298.080597 
	C379.656128,296.206512 383.136322,294.398895 385.388062,294.896576 
	C387.882294,295.447845 389.980347,298.480255 391.860809,300.754761 
	C392.540283,301.576599 392.146454,303.332397 392.147034,304.662079 
	C392.157990,330.484375 392.114197,356.306763 392.190765,382.128815 
	C392.205048,386.951721 390.983337,390.679596 385.379242,392.069397 
z"/>
</svg>